# xmcd
#
# Track frame offsets:
#   150
#   12516
#   34980
#   45969
#   60873
#   72915
#   87927
#   103614
#   122784
#   136959
#   147867
#   158127
#   175272
#   192498
#   210264
#   226950
#   242232
#   254436
#   266208
#   283137
#
# Disc length: 3983 seconds
#
# Revision: 0
# Processed by: cddbd v1.5.2PL0 Copyright (c) Steve Scherf et al.
# Submitted via: uFREEDB ActiveX Control 1.5
#
DISCID=210f8d14
DTITLE=Varios - Viajando ao Passado
DYEAR=1970
DGENRE=Blues
TTITLE0=01 Você é doida demais - Lindomar Castilho
TTITLE1=02 Tu - Julio Cesar
TTITLE2=03 A Namorada que sonhei - Nilton Cesar
TTITLE3=04 Te amo que mais posso dizer - Ovelha
TTITLE4=05 Eu quero apenas carinho - José Augusto
TTITLE5=06 Cadeira de rodas - Fernando Mendes
TTITLE6=07 Soleado - Francisco Cuoco
TTITLE7=08 Não se vá - Jane e Ehondy
TTITLE8=09 Porque brigamos - Diana
TTITLE9=10 Será mentira ou será verdade - Renato e seus Bl
TTITLE10=11 És meu amor - Jarry Adriani
TTITLE11=12 O telefone chora (Le Telephone Plioeure) - Marc
TTITLE12=13 Concerto para um verão - Carmen Silva
TTITLE13=14 Quero ver você feliz - Paulo Sérgio
TTITLE14=15 Meu amor - Barros de Alencar
TTITLE15=16 Meu velho pai - Carmen Silva
TTITLE16=17 Doce doce amor - Jarry Adriani
TTITLE17=18 Canção dos namorados - Diana
TTITLE18=19 Não são palavras lindas - Heleno
TTITLE19=20 Última canção - Paulo Sérgio
EXTD=
EXTT0=
EXTT1=
EXTT2=
EXTT3=
EXTT4=
EXTT5=
EXTT6=
EXTT7=
EXTT8=
EXTT9=
EXTT10=
EXTT11=
EXTT12=
EXTT13=
EXTT14=
EXTT15=
EXTT16=
EXTT17=
EXTT18=
EXTT19=
PLAYORDER=
